<svg version="1.1" xmlns="http://www.w3.org/2000/svg" xmlns:xlink="http://www.w3.org/1999/xlink" width="783.78378" height="710.30856" viewBox="0,0,783.78378,710.30856"><g transform="translate(151.89189,175.15429)"><g data-paper-data="{&quot;isPaintingLayer&quot;:true}" fill-rule="nonzero" stroke-width="0" stroke-linecap="butt" stroke-linejoin="miter" stroke-miterlimit="10" stroke-dasharray="" stroke-dashoffset="0" style="mix-blend-mode: normal"><path d="M-151.89189,492.31231v-624.62462h783.78378v624.62462z" fill="#003148" stroke="none"/><g fill="#2c626d" stroke="#000000"><path d="M-115.15428,163.44302l355.07719,16.55698l-355.07719,16.55698z"/><path d="M595.15428,196.55698l-355.07719,-16.55698l355.07719,-16.55698z" data-paper-data="{&quot;index&quot;:null}"/><path d="M-22.83955,419.42445l262.78505,-239.36993l-239.36993,262.78505z"/><path d="M502.83955,-59.42445l-262.78505,239.36993l239.36993,-262.78505z" data-paper-data="{&quot;index&quot;:null}"/><path d="M223.44302,535.15428l16.55698,-355.07719l16.55698,355.07719z"/><path d="M256.55698,-175.15428l-16.55698,355.07719l-16.55698,-355.07719z" data-paper-data="{&quot;index&quot;:null}"/><path d="M479.42445,442.83955l-239.36993,-262.78505l262.78505,239.36993z"/><path d="M0.57555,-82.83955l239.36993,262.78505l-262.78505,-239.36993z" data-paper-data="{&quot;index&quot;:null}"/><path d="M106.693,509.6027l133.28146,-329.52996l-102.03834,340.50275z"/><path d="M373.30701,-149.6027l-133.28146,329.52996l102.03833,-340.50275z" data-paper-data="{&quot;index&quot;:null}"/><path d="M378.80202,507.32659l-138.76865,-327.2571l168.6198,312.9238z"/><path d="M101.19798,-147.32659l138.76865,327.2571l-168.6198,-312.9238z" data-paper-data="{&quot;index&quot;:null}"/><path d="M569.6027,313.30701l-329.52996,-133.28146l340.50275,102.03833z"/><path d="M-89.6027,46.69299l329.52996,133.28146l-340.50275,-102.03833z" data-paper-data="{&quot;index&quot;:null}"/><path d="M567.32659,41.19799l-327.2571,138.76864l312.9238,-168.6198z"/><path d="M-87.32659,318.80201l327.2571,-138.76864l-312.9238,168.6198z" data-paper-data="{&quot;index&quot;:null}"/></g></g></g></svg>