<svg version="1.1" xmlns="http://www.w3.org/2000/svg" xmlns:xlink="http://www.w3.org/1999/xlink" width="544.60939" height="417.5" viewBox="0,0,544.60939,417.5"><g transform="translate(24.55833,18.91593)"><g data-paper-data="{&quot;isPaintingLayer&quot;:true}" fill-rule="nonzero" stroke="none" stroke-linecap="butt" stroke-linejoin="miter" stroke-miterlimit="10" stroke-dasharray="" stroke-dashoffset="0" style="mix-blend-mode: normal"><path d="M-7.39788,398.58408v-132h510v132z" fill="#00bdff" stroke-width="0"/><path d="M193.5,42.5v-31h93v31z" fill="#f3ff00" stroke-width="0"/><text transform="translate(240,75) scale(0.5,0.5)" font-size="40" xml:space="preserve" fill="#960000" fill-rule="nonzero" stroke="none" stroke-width="1" stroke-linecap="butt" stroke-linejoin="miter" stroke-miterlimit="10" stroke-dasharray="" stroke-dashoffset="0" font-family="Serif" font-weight="normal" text-anchor="middle" style="mix-blend-mode: normal"><tspan x="0" dy="0">out of reach</tspan><tspan x="0" dy="48px"> </tspan><tspan x="0" dy="48px">code: ATPQXHDFPSZ</tspan></text><path d="M-9.94894,296.08408v-302h26v302z" fill="#00bdff" stroke-width="0"/><path d="M2.05105,9.08408v-28h518v28z" fill="#00bdff" stroke-width="0"/><path d="M505.05107,30.08408v-2h3v2z" fill="#00d1ff" stroke-width="0"/><path d="M463.05107,285.08408v-287h56v287z" fill="#00bdff" stroke-width="0"/><path d="M-6.26008,8.60383c0.21974,-0.08917 9.71875,-0.06778 10.10544,-0.06778c6.32079,0 13.41205,-0.67617 19.66556,0c3.66687,0.39649 8.29212,-0.24947 10.87395,1.70735c3.51783,2.66624 5.98446,6.50669 6.21689,10.2486c3.56629,0.50869 9.9493,2.32965 9.9493,8.848c0,5.00443 -3.76235,7.24006 -7.12386,8.23879c0.921,5.56686 -3.11174,9.74621 -10.29634,12.78116c-2.44076,1.03104 -5.59389,0.45902 -8.39084,0.68852c-1.10124,-0.09036 -2.24573,-0.0729 -3.38238,-0.07497c-1.69581,1.45569 -3.9436,2.76021 -6.66324,3.90905c-2.44076,1.03104 -5.57752,0.63448 -8.39084,0.68852c-7.78987,0.14963 -15.73664,-2.72322 -20.8296,-7.1729c-0.39859,-0.34824 -0.68399,-0.74638 -0.91738,-1.16808c-2.49301,-0.69499 -4.58539,-2.28733 -6.81576,-6.28796c-0.55941,-1.00341 -0.96945,-1.91501 -1.24671,-2.75324c-2.17337,-4.91926 -0.97713,-10.65541 3.5567,-14.73704c-1.27475,-1.42547 -2.01649,-3.13203 -2.01649,-4.96608c0,-4.30462 4.08597,-7.90693 9.5594,-8.82102l4.66696,-0.85863l0.12655,0.37251c0.44561,-0.19772 0.89627,-0.38959 1.3527,-0.57481z" fill="#ffffff" stroke-width="0.5"/><path d="M451.73992,8.60383c0.21974,-0.08917 9.71875,-0.06778 10.10544,-0.06778c6.32079,0 13.41205,-0.67617 19.66556,0c3.66686,0.39649 8.29212,-0.24947 10.87395,1.70735c3.51783,2.66624 5.98445,6.50669 6.21688,10.2486c3.56628,0.50869 9.94931,2.32965 9.94931,8.848c0,5.00443 -3.76235,7.24006 -7.12387,8.23879c0.921,5.56686 -3.11174,9.74621 -10.29633,12.78116c-2.44076,1.03104 -5.5939,0.45902 -8.39085,0.68852c-1.10124,-0.09036 -2.24572,-0.0729 -3.38237,-0.07497c-1.69581,1.45569 -3.94361,2.76021 -6.66324,3.90905c-2.44076,1.03104 -5.57752,0.63448 -8.39085,0.68852c-7.78987,0.14963 -15.73665,-2.72322 -20.82959,-7.1729c-0.39859,-0.34824 -0.68399,-0.74638 -0.91738,-1.16808c-2.49301,-0.69499 -4.5854,-2.28733 -6.81576,-6.28796c-0.55941,-1.00341 -0.96945,-1.91501 -1.24671,-2.75324c-2.17336,-4.91926 -0.97713,-10.65541 3.5567,-14.73704c-1.27476,-1.42547 -2.01649,-3.13203 -2.01649,-4.96608c0,-4.30462 4.08597,-7.90693 9.5594,-8.82102l4.66696,-0.85863l0.12655,0.37251c0.44561,-0.19772 0.89627,-0.38959 1.3527,-0.57481z" fill="#ffffff" stroke-width="0.5"/><path d="M-9.44895,10.56778v-26h509v26z" fill="#ffffff" stroke-width="0"/></g></g></svg>