<svg version="1.1" xmlns="http://www.w3.org/2000/svg" xmlns:xlink="http://www.w3.org/1999/xlink" width="523" height="399" viewBox="0,0,523,399"><g transform="translate(19.05767,19.5)"><g data-paper-data="{&quot;isPaintingLayer&quot;:true}" fill-rule="nonzero" stroke="none" stroke-linecap="butt" stroke-linejoin="miter" stroke-miterlimit="10" stroke-dasharray="" stroke-dashoffset="0" style="mix-blend-mode: normal"><path d="M-19.05767,379.5v-399h523v399z" fill="#000000" stroke-width="0"/><path d="M48.70963,152.25c0,-15.43069 27.235,-28.54374 65.14644,-33.30608c12.41341,-14.23131 48.97483,-24.542 92.14586,-24.542c34.75449,0 65.22535,6.68229 82.26204,16.71288c5.22407,-0.32229 10.58371,-0.4898 16.04565,-0.4898c23.60964,0 45.3073,3.12965 62.40923,8.36298c3.17504,-0.16602 6.40635,-0.25144 9.68308,-0.25144c44.79243,0 81.10385,15.96019 81.10385,35.64808c0,11.61431 -12.63663,21.93136 -32.19646,28.43984c6.95438,3.7395 10.89646,8.01003 10.89646,12.54478c0,14.73645 -41.62977,26.68269 -92.98269,26.68269c-19.0056,0 -36.67939,-1.63631 -51.40391,-4.44476c-17.6245,5.95426 -40.78626,9.56784 -66.1557,9.56784c-7.02169,0 -13.87423,-0.27682 -20.48709,-0.80347c0.00419,0.07792 0.00632,0.15601 0.00632,0.23424c0,7.78084 -20.90657,14.08846 -46.69615,14.08846c-25.78958,0 -46.69615,-6.30762 -46.69615,-14.08846c0,-3.16902 3.46797,-6.09364 9.32137,-8.44727c-40.41908,-0.82661 -72.40214,-11.57388 -72.40214,-24.71041c0,-7.06119 9.24089,-13.43202 24.06562,-17.94288c-14.98029,-6.20365 -24.06562,-14.34286 -24.06562,-23.2552zM115.88655,249.44616c0,5.06934 -11.55364,9.17885 -25.80577,9.17885c-14.25212,0 -25.80577,-4.10951 -25.80577,-9.17885c0,-5.06934 11.55364,-9.17885 25.80577,-9.17885c14.25212,0 25.80577,4.10951 25.80577,9.17885zM54.44424,258.55385c0,3.89043 -7.15225,7.04423 -15.975,7.04423c-8.82275,0 -15.975,-3.1538 -15.975,-7.04423c0,-3.89043 7.15225,-7.04423 15.975,-7.04423c8.82275,0 15.975,3.1538 15.975,7.04423z" fill="#b50000" stroke-width="0"/><text transform="translate(253.00001,161.23125) scale(0.5,0.5)" font-size="40" xml:space="preserve" fill="#000000" fill-rule="nonzero" stroke="none" stroke-width="1" stroke-linecap="butt" stroke-linejoin="miter" stroke-miterlimit="10" stroke-dasharray="" stroke-dashoffset="0" font-family="Archivo Black" font-weight="normal" text-anchor="middle" style="mix-blend-mode: normal"><tspan x="0" dy="0">I HAVE HIM.</tspan><tspan x="0" dy="46.150000000000006px">bit.ly/joe??????</tspan></text></g></g></svg>