<svg version="1.1" xmlns="http://www.w3.org/2000/svg" xmlns:xlink="http://www.w3.org/1999/xlink" width="214.48865" height="89.00646" viewBox="0,0,214.48865,89.00646"><g transform="translate(-132.75567,-135.48181)"><g data-paper-data="{&quot;isPaintingLayer&quot;:true}" fill="#ffffff" fill-rule="nonzero" stroke="#000000" stroke-width="1.5" stroke-linecap="butt" stroke-linejoin="miter" stroke-miterlimit="10" stroke-dasharray="" stroke-dashoffset="0" style="mix-blend-mode: normal"><g><g><path d="M139.14067,209.75781c1.25389,0 1.87889,0.6289 2.19041,1.25583c2.48762,-0.02547 4.85792,-0.13073 7.37228,-0.56298c0.7221,-0.12413 1.53803,0.15329 2.19072,-0.17962c0.91507,-0.46674 0.31652,-2.04218 0.28137,-3.06881c0,-0.10581 -0.00691,-5.72476 0.01873,-6.01401c0.02699,-0.30447 0.58515,-0.72797 0.31079,-0.86273c-0.3357,-0.16489 -0.61663,0.49729 -0.98926,0.52948c-1.45013,0.12527 -2.94545,0.25002 -4.36606,-0.06688c-4.26847,-0.95218 -5.98364,-4.79027 -8.74892,-7.58938c-0.8629,-0.87346 -2.21586,-1.26944 -2.87056,-2.30813c-3.91861,-6.21692 4.22239,-15.98034 10.60348,-15.23918c4.22691,0.49095 4.53613,3.25856 8.20638,4.58371c0,0 2.32119,0.92848 1.39272,3.24967c-0.92847,2.32119 -3.24967,1.39272 -3.24967,1.39272c-1.25066,-0.5336 -2.65448,-0.79806 -3.75197,-1.6008c-0.95424,-0.69796 -2.30247,-3.92668 -4.47399,-2.83433c-0.51662,0.25987 -0.69403,0.9276 -1.08478,1.35391c-1.38372,1.50965 -3.53932,2.92105 -3.69139,5.18366c-0.12471,1.85543 1.03065,1.27772 2.39968,2.62847c1.72051,1.69754 2.89303,3.941 4.77741,5.45458c2.63828,2.11914 6.41881,-0.77573 8.92401,1.32148c2.55396,2.13803 1.59341,7.97481 1.59341,10.81778c-0.05826,2.70231 0.3743,4.95498 -2.24641,7.04234c-1.11302,0.8865 -2.74991,0.73287 -4.12875,1.08428c-3.55018,0.90479 -7.01709,0.69285 -10.65962,0.69285l-2.5,-3.76389c0,0 0,-2.5 2.5,-2.5z"/><path d="M168.84219,193.95913c2.5,0 2.5,2.5 2.5,2.5v0.63194c-0.02253,2.67295 0.94314,4.65774 1.24516,7.27791c0.40793,3.53889 -0.61321,7.42358 -0.61321,11.04856c0,0 0,2.5 -2.5,2.5c-2.5,0 -2.5,-2.5 -2.5,-2.5c0,-0.00603 -0.00697,-5.78128 0.01873,-5.99298c0.18031,-1.48555 0.838,-2.96246 0.63195,-4.44466c-0.38664,-2.78134 -1.26361,-5.0118 -1.28263,-7.88883v-0.63194c0,0 0,-2.5 2.5,-2.5z"/><path d="M165.07829,186.34798c0,-1.38071 1.11929,-2.5 2.5,-2.5c1.38071,0 2.5,1.11929 2.5,2.5c0,1.38071 -1.11929,2.5 -2.5,2.5c-1.38071,0 -2.5,-1.11929 -2.5,-2.5z"/><path d="M230.773,185.74382c2.5,0 2.5,2.5 2.5,2.5l-0.26393,0.77781c2.19216,4.6087 1.52783,9.34396 1.52783,14.38893c0,0.56879 0.04069,5.99371 -0.12829,6.47809c-0.37949,1.08782 -1.48643,1.78548 -2.01021,2.81165c-0.49351,0.96687 -0.19352,2.37733 -1.00589,3.09737c-2.62608,2.32762 -5.80344,2.7762 -8.80268,1.16343c-4.06287,-2.1847 -3.66057,-5.62848 -4.38288,-9.28609c-0.55804,-2.82584 -2.22218,-5.4144 -2.55417,-8.38263c-0.18453,-1.6498 -0.23253,-3.41281 -1.0187,-4.87494c0,0 -1.11803,-2.23607 1.11804,-3.35411c2.23607,-1.11803 3.3541,1.11804 3.3541,1.11804c0.95543,2.00868 1.26509,4.2892 1.5091,6.5001c0.3122,2.82877 1.95249,5.33549 2.50141,8.048c0.48337,2.38856 -0.48129,4.25662 1.93659,5.88064c2.3303,1.56519 2.27997,-0.92461 2.83038,-2.05866c0.417,-0.85919 1.41521,-1.36191 1.78148,-2.24393c0.62622,-1.50803 -0.12829,-3.26407 -0.12829,-4.89695c0,-3.97772 0.90452,-8.61086 -0.99996,-12.15286l-0.26393,-3.01387c0,0 0,-2.5 2.5,-2.5z"/><path d="M246.57168,217.2856c-2.5,0 -2.5,-2.5 -2.5,-2.5v-1.89584c0,-4.4232 -0.08659,-8.62649 -0.61321,-12.96543c-0.36219,-2.9841 0.42367,-4.08824 -1.0187,-6.77079c0,0 -1.11804,-2.23607 1.11803,-3.35411c2.23607,-1.11803 3.3541,1.11803 3.3541,1.11803c1.57916,3.31998 1.06719,4.97285 1.5091,8.39594c0.58623,4.54109 0.65068,8.95519 0.65068,13.57635v1.89584c0,0 0,2.5 -2.5,2.5z"/><path d="M291.27229,213.7198c-1.55228,1.9597 -3.51198,0.40741 -3.51198,0.40741l-2.38508,-1.90212c-0.69773,-0.87081 -1.56306,-1.53468 -2.53075,-2.00414c-0.95686,2.95727 -2.62092,5.55276 -5.16224,7.19779c-1.06302,0.68811 -2.43415,0.69917 -3.65122,1.04875c-3.02043,0.11339 -5.50152,-0.24935 -8.43284,-0.96017c-1.13046,-0.27413 -2.46605,-0.16984 -3.37166,-0.89989c-2.36969,-1.91033 -3.9035,-5.69455 -1.41736,-8.43412c1.63936,-1.80648 5.77489,-2.32741 8.17097,-2.14945c0.68,0.0505 1.30353,0.63262 1.97695,0.52558c1.9556,-0.31084 3.60697,-1.82521 5.57376,-2.05475c0.87169,-0.10173 1.72136,-0.14653 2.54758,-0.13154c0.25859,-2.03749 0.17835,-4.01689 -0.2273,-5.46617c-0.2595,-0.92711 -0.91144,-1.70255 -1.24917,-2.60411c-0.33479,-0.8937 -0.24566,-1.95658 -0.76036,-2.76024c-0.79543,-1.24197 -4.83055,-0.64657 -5.76364,-0.72316c-2.5275,-0.20748 -4.73418,-0.97637 -7.30065,0.00663c-0.80279,0.30748 -1.35618,1.09269 -2.14811,1.42716c-2.55588,1.07951 -3.65417,0.91963 -6.25535,1.03391c0,0 -2.49813,0.09677 -2.5949,-2.40135c-0.09677,-2.49812 2.40136,-2.5949 2.40136,-2.5949c3.22264,-0.10419 3.88956,-1.09325 6.75777,-2.11424c3.44917,-1.2278 6.16501,-0.61821 9.55825,-0.33966c2.96647,0.24352 6.80682,-0.33231 9.0816,2.383c0.96685,1.15408 1.07244,2.81428 1.65671,4.20183c1.23938,2.9433 1.86653,6.90653 1.56747,10.80293c1.85091,0.68626 3.53098,1.79906 5.01713,3.38558l2.04564,1.60748c0,0 1.9597,1.55228 0.40742,3.51198zM277.66899,209.41048c-0.91659,0.09889 -1.83171,0.31283 -2.71042,0.63507c-1.16659,0.42782 -2.19656,1.28603 -3.42533,1.47058c-2.49382,0.37456 -4.36888,-1.0296 -6.96983,-0.04046c-0.34648,0.13177 0.13663,0.86758 0.48203,1.00215c0.49153,0.19151 1.05596,0.05152 1.57675,0.13549c2.36435,0.38124 4.26446,1.00664 6.67127,0.90888c1.94301,-0.4176 3.39456,-2.03321 4.37554,-4.11172z"/><path d="M311.63445,197.72303c0,2.5 -2.5,2.5 -2.5,2.5c-1.71367,0 -3.71185,0 -5.77411,0c0.01188,0.11882 0.0252,0.23693 0.04006,0.35428c0.60598,4.78289 1.88249,9.35588 1.91458,14.20829v0.63195c0,0 0,2.5 -2.5,2.5c-2.5,0 -2.5,-2.5 -2.5,-2.5v-0.63195c0.039,-4.62791 -1.31271,-9.03226 -1.87711,-13.59737c-0.03926,-0.31752 -0.06894,-0.63962 -0.09083,-0.96519c-1.56182,0 -3.05547,0 -4.37932,0c0,0 -2.5,0 -2.5,-2.5c0,-2.5 2.5,-2.5 2.5,-2.5c1.47047,0 2.94094,0 4.41142,0c0.02218,-0.65188 0.03999,-1.29587 0.03999,-1.92363c0,0 0,-2.5 2.5,-2.5c2.5,0 2.5,2.5 2.5,2.5c0,0.62482 -0.0223,1.26973 -0.04939,1.92363c1.28962,0 2.57925,0 3.86887,0h1.89584c0,0 2.5,0 2.5,2.5z"/><path d="M320.42324,202.13761c-0.37629,1.87711 -2.44153,1.8771 -2.44153,1.8771c-5.13481,-0.3792 -4.04835,5.51244 -3.26217,8.90066c0.12396,0.53426 0.14904,2.34265 1.05914,2.72027c1.5439,0.64059 3.32861,-1.76672 3.8153,-2.7068c0.84695,-1.63598 1.87144,-3.23941 2.27408,-5.03709c0.37254,-1.66332 -0.32063,-3.42762 -0.06688,-5.11315c0.05568,-0.36985 0.69438,-0.65355 0.52949,-0.98926c-0.13476,-0.27436 -0.55879,0.27832 -0.86273,0.31079c-0.34682,0.03705 -0.69549,0.04198 -1.04469,0.03747zM315.12654,199.00566c0.50079,-0.81594 1.43265,-1.12655 1.43265,-1.12655l2.68642,-0.76024c2.11194,0.01396 5.44925,-0.29018 7.02609,1.59341c0.61531,0.73501 0.54365,5.26804 0.52948,6.59411c-0.05712,5.3485 -2.73073,13.73675 -8.87703,15.07207c-6.0793,1.32076 -8.13984,-4.24461 -8.74317,-9.07908c-0.60863,-4.87691 0.29676,-10.07916 5.48238,-12.15637c0.15125,-0.06059 0.30589,-0.10519 0.46319,-0.13734z"/><path d="M345.81416,207.57758c-1.53038,1.53037 -3.06076,0 -3.06076,0l-0.64785,-0.64785c-2.04389,-2.06094 -3.62636,-3.52019 -6.49044,-3.57808c0.63725,2.64869 1.28177,5.30436 1.4336,8.04891c0.18546,3.35245 -0.51129,6.57339 -0.01631,9.88912c0,0 0.30608,2.14253 -1.83646,2.4486c-2.14253,0.30607 -2.4486,-1.83645 -2.4486,-1.83645c-0.47397,-3.44345 0.17675,-6.73614 -0.0163,-10.19441c-0.25715,-4.60641 -1.91434,-8.94921 -2.57511,-13.45232l-0.02175,-1.60178c0,0 -0.00001,-2.16428 2.16427,-2.16428c2.16428,0 2.16428,2.16428 2.16428,2.16428l-0.02175,0.98963c0.06728,0.48672 0.1466,0.97172 0.23496,1.45552c0.30894,-0.07445 0.53786,-0.07446 0.53786,-0.07446c4.36903,0.07145 6.92019,1.83414 9.9525,4.84497l0.64786,0.64786c0,0 1.53037,1.53037 0,3.06075z"/><path d="M203.73822,216.72574c-2.5,0 -2.5,-2.5 -2.5,-2.5v-0.72264c0.00814,-3.04437 -0.82536,-4.56185 -1.40518,-7.50303c-0.6888,-3.49403 -0.32095,-7.40847 -0.74285,-10.97087c-0.14404,-1.21626 -0.57942,-4.26447 -1.37948,-5.05347c-0.15901,-0.15681 -0.00222,0.45975 -0.09402,0.66333c-0.35058,0.77746 -0.58569,1.67849 -1.21936,2.24928c-0.05499,0.04953 -0.11052,0.09837 -0.16657,0.14654l0.03363,0.02803l-1.79439,2.15327c-0.4585,0.55817 -1.15406,0.91421 -1.93277,0.91421c-1.38071,0 -2.5,-1.11929 -2.5,-2.5v-2.89058c0.0682,-0.76645 0.70793,-2.13891 -0.04273,-2.30802c-0.89984,-0.20272 -1.78678,1.01336 -2.00203,1.91029c-0.7056,2.94027 0.17963,6.04572 0.17963,9.06946c0,4.91223 -0.37211,9.95575 0.3362,14.82198c0,0 0.35356,2.47487 -2.12132,2.82843c-2.47487,0.35356 -2.82843,-2.12132 -2.82843,-2.12132c-0.93811,-6.67652 -0.49721,-13.78951 -0.38645,-20.52909c0.0325,-1.97749 -0.52591,-4.08292 0.17964,-5.93054c2.01048,-5.26484 8.07832,-6.45402 11.05586,-1.95221c1.09214,-0.97512 2.54432,-1.62547 3.7958,-1.52871c1.51936,0.11748 2.61006,1.66425 3.58837,2.83267c3.98752,4.76238 1.84172,11.77141 2.96104,17.27521c0.6155,3.02644 1.47795,5.18829 1.4854,8.39515v0.72264c0,0 0,2.5 -2.5,2.5z"/></g><g><path d="M231.85883,138.73181c0,2.5 -2.5,2.5 -2.5,2.5l-0.18574,-0.03402c-4.51272,0.73216 -8.68404,2.54761 -13.29293,3.00555c-1.70501,0.16941 -3.41271,0.29707 -5.12217,0.40077c0.80426,1.45063 1.34694,3.09941 1.86985,4.65442c1.65657,4.92618 3.65494,10.57914 0.26017,15.4014c-0.64773,0.9201 -1.7114,1.4871 -2.38696,2.38696c-0.56893,0.75782 -0.67001,1.82115 -1.3022,2.52705c-5.08745,5.68058 -13.54022,5.67206 -20.41832,5.67206c-0.55425,0 -7.44988,0.06717 -8.11759,-0.1903c-1.08657,-0.41898 -1.73418,-1.55477 -2.60128,-2.33216l-0.02245,0.73223c0,0 -2.5,0 -2.5,-2.5c0,-2.5 2.5,-2.5 2.5,-2.5l3.55799,0.73223c1.61753,2.06212 4.59881,1.05799 7.18334,1.05799c4.53639,0 7.97553,0.26287 12.10414,-1.57082c1.27776,-0.56751 3.4711,-1.05387 4.47542,-2.30497c1.2082,-1.50508 2.25057,-3.13923 3.47171,-4.63383c2.47114,-3.02453 0.0615,-7.84082 -0.93332,-10.85516c-0.55448,-1.68012 -0.85616,-3.67301 -2.19071,-4.83458c-0.68132,-0.59301 -1.4599,-0.92983 -2.29074,-1.09255c-1.3337,0.05576 -2.66766,0.11243 -4.00143,0.17842c-1.27149,0.25459 -2.50942,0.61042 -3.58065,0.82467c0,0 -1.08437,0.21687 -1.95496,-0.35906c-1.2582,0.35055 -2.44392,1.05024 -3.69139,1.46577c-1.93086,0.64316 -3.96334,0.98427 -5.85027,1.74673c0,0 -2.32119,0.92848 -3.24967,-1.39271c-0.92847,-2.32119 1.39271,-3.24967 1.39271,-3.24967c3.60666,-1.42995 8.14609,-3.39133 12.0202,-3.74708c2.04973,-0.18822 4.1066,-0.30847 6.16612,-0.40249c0.68414,-0.06723 1.36679,-0.10116 2.04215,-0.08611c4.23387,-0.1669 8.47269,-0.28125 12.67763,-0.70488c4.48381,-0.45172 8.55608,-2.21042 12.96362,-2.96185l1.00774,-0.03401c0,0 2.5,0 2.5,2.5z"/><path d="M229.27314,149.26284c-0.35906,0.28563 -0.6855,0.4162 -0.6855,0.4162c-3.5001,1.12285 -2.98721,2.81154 -3.88288,6.0781c-0.87168,3.17906 -2.21486,7.27377 0.99489,9.98655c0.64222,0.54279 1.61192,0.48995 2.38692,0.8162c1.98549,0.83584 6.48956,4.10987 8.61529,1.63977c0.60497,-0.70299 0.86921,-1.63958 1.34511,-2.43563c0.48125,-0.80501 1.30226,-1.45365 1.52466,-2.3648c0.27752,-1.13696 -0.08599,-2.33951 -0.09071,-3.50984c-0.01205,-2.9929 -0.4667,-3.57895 -2.25146,-5.98986c-2.92647,-2.16432 -4.32584,-3.90719 -7.95632,-4.63669zM224.05842,145.98961c0.45252,-1.7285 2.40728,-1.7285 2.40728,-1.7285l3.23004,0.01217c4.99167,1.01262 7.16582,3.12662 11.06926,6.09072c2.56083,3.38461 3.72817,5.21104 3.71594,9.52539c-0.00458,1.61512 0.30706,3.27913 -0.09071,4.84451c-0.34052,1.34004 -1.34314,2.41779 -2.05578,3.60261c-2.58,4.28949 -5.00725,6.23082 -10.37412,5.34583c-1.73228,-0.28565 -4.25836,-1.7906 -5.92203,-2.56125c-1.18258,-0.5478 -2.60825,-0.70283 -3.58049,-1.57077c-4.7048,-4.20009 -4.00446,-9.84904 -2.58554,-15.07652c0.85171,-3.13781 0.38182,-5.00121 3.11043,-7.76218c0.30883,-0.31249 0.67691,-0.53943 1.07572,-0.72201z"/><path d="M246.23641,154.07025c0.94317,-2.31526 3.25843,-1.37208 3.25843,-1.37208l0.39999,0.25807c0.41732,0.05085 0.8319,0.09779 1.24407,0.14066c0.09976,-1.00716 0.34722,-1.98735 0.80439,-2.91384c4.38332,-8.88318 16.9152,-9.83928 24.47261,-5.66301c0.83062,1.04771 2.19988,1.83837 2.49187,3.14311c1.13088,5.0533 -3.10257,6.89118 -6.83766,8.26153c-5.00252,1.83535 -10.0605,2.52781 -15.19688,2.50048c0.64684,3.58972 1.35889,7.90465 4.11726,10.30375c1.77215,1.54132 4.64336,1.01805 6.71894,1.30247c1.62713,0.22296 5.40751,1.08294 7.22728,1.48417c0,0 2.44133,0.53841 1.90292,2.97975c-0.53841,2.44134 -2.97975,1.90292 -2.97975,1.90292c-4.76232,-1.05057 -12.14713,-0.63593 -16.07852,-3.83507c-2.92833,-2.3829 -4.37206,-6.90047 -5.20637,-10.31408c-0.31346,-1.28252 -0.70411,-2.66902 -1.00666,-4.08818c-0.75648,-0.06857 -1.51479,-0.14934 -2.275,-0.24099l-1.68483,-0.59123c0,0 -2.31526,-0.94318 -1.37208,-3.25844zM256.04344,153.40398c3.74223,0.06313 7.39495,-0.30238 11.2434,-1.25511c1.21918,-0.30183 8.56454,-1.74725 5.98905,-3.73776c-5.05086,-2.84195 -13.84337,-1.46544 -16.8784,4.04352c-0.18318,0.33249 -0.29477,0.64611 -0.35405,0.94935z"/></g></g></g></g></svg>