<svg version="1.1" xmlns="http://www.w3.org/2000/svg" xmlns:xlink="http://www.w3.org/1999/xlink" width="108.45663" height="79.21002" viewBox="0,0,108.45663,79.21002"><g transform="translate(-185.77169,-140.39499)"><g data-paper-data="{&quot;isPaintingLayer&quot;:true}" fill-rule="nonzero" stroke="none" stroke-width="0.5" stroke-linecap="butt" stroke-linejoin="miter" stroke-miterlimit="10" stroke-dasharray="" stroke-dashoffset="0" style="mix-blend-mode: normal"><path d="M229.6209,142.61766c7.53402,-2.46211 17.05858,-2.47376 25.02199,-1.94053c4.14018,0.27722 8.15925,1.501 12.28705,1.81852c0.21416,0.01648 0.42834,0.03131 0.64256,0.04464c0.58281,0.00655 1.17097,0.03243 1.75894,0.0779c6.01227,0.16706 12.0384,-0.59471 18.01159,0.39916c3.37192,1.1852 8.9262,3.98805 6.1179,8.48007l0.2152,0.46794c0,0.90853 0,1.81706 0,2.72559c-0.01491,7.23305 -2.45625,14.30243 -3.03505,21.55668c-0.58412,7.32106 -0.42057,15.17649 -0.42432,22.50707c-0.00191,3.73537 -0.262,9.77319 -2.65065,12.87412c-2.13582,2.77271 -6.3456,3.88645 -9.40388,4.95923c-5.37856,1.57558 -10.5619,0.64619 -16.07417,1.01169c-2.43136,0.16122 -5.28979,0.07522 -7.68908,0.44405c-2.07316,0.3187 -4.05755,1.22992 -6.14837,1.37301c-6.27702,0.42957 -12.75284,0.05792 -18.98664,-0.45427c-3.29791,-0.27096 -6.75243,0.70254 -9.9631,0.45268c-1.82,-0.14163 -3.58289,-0.92069 -5.40775,-0.89843c-3.31878,-0.02742 -6.19466,-0.83509 -9.35173,-1.92874c-0.64505,-0.22345 -1.21209,-0.80999 -1.89119,-0.79685c-0.7883,0.01525 -1.43406,0.75031 -2.21333,0.87625c-2.88818,0.46678 -8.00604,0.40273 -10.47801,-1.39262c-0.93901,-0.68199 -1.3231,-1.95823 -1.90239,-2.99159c-0.72942,-1.30116 -1.6964,-2.53146 -2.01873,-4.00303c-0.42022,-1.91853 0.39804,-3.92271 0.39524,-5.89138c-0.01292,-9.08526 0,-18.17065 0,-27.25593c0,-4.88636 0.36837,-9.94572 0.00599,-14.81354c-0.27666,-3.71625 -1.48906,-9.1397 0.25777,-12.67781c1.89628,-3.84083 6.22152,-4.95029 9.89959,-4.99017c9.70365,-0.10521 19.41578,-0.01226 29.12003,0.00483c1.07101,0.14064 2.15093,0.23889 3.23699,0.30819c0.3581,-0.24357 0.66756,-0.34673 0.66756,-0.34673z" fill="#16ff00"/><path d="M229.28952,194.97311c-1.11803,2.23607 -3.35411,1.11804 -3.35411,1.11804l-1.55827,-0.92257c-0.30407,-0.30407 -0.60814,-0.60814 -0.91221,-0.91221c-1.82639,-1.82581 -4.07146,-3.63814 -5.65025,-5.67675c-0.49515,-0.63936 -0.88873,-1.41566 -1.25375,-2.23195c-1.22776,1.54814 -2.33494,2.74873 -4.68232,3.54041c-6.58131,2.21962 -12.49634,-3.50199 -13.62151,-9.61258c-1.13517,-6.16493 3.62291,-12.50657 8.70698,-15.82573c0.00084,-0.00265 0.0013,-0.004 0.0013,-0.004l2.82597,-3.07223c4.33032,0 9.82769,-0.87216 12.60436,3.50619c0.69016,1.08827 0.52633,2.52302 0.78949,3.78453c0.00993,3.4151 0.36196,6.61962 -1.11571,9.8531c-0.61118,1.33741 -1.35342,2.49492 -2.16852,3.60081c0.53112,1.1899 1.06616,2.37619 1.85473,3.38438c0.9738,1.245 2.22266,2.39367 3.44535,3.51813c0.27698,0.17771 0.4403,0.34102 0.4403,0.34102l-0.0203,0.04576c0.06017,0.05557 0.12019,0.11108 0.18003,0.16658c0.18759,0.13498 0.29454,0.24193 0.29454,0.24193c0.60568,0.60568 1.21138,1.21138 1.81706,1.81707l0.2588,-0.01404c0,0 2.23607,1.11803 1.11804,3.3541zM213.92905,181.54062c-1.39776,-1.34408 -3.16419,-2.27027 -4.54265,-3.63413c0,0 -1.76776,-1.76777 0,-3.53553c1.76776,-1.76776 3.53553,0 3.53553,0c1.19752,1.21305 2.75436,2.02818 4.03248,3.15116c0.18816,-0.32616 0.37037,-0.66958 0.5465,-1.03646c1.11005,-2.31229 0.69302,-4.94594 0.70135,-7.40898c-0.21657,-3.0321 -3.17165,-3.02664 -5.91178,-2.84191c-0.25313,1.12795 -1.38108,1.69192 -1.38108,1.69192c-2.92136,1.41641 -3.16881,2.06662 -4.9709,4.64232c-0.77361,1.10572 -2.46534,2.66707 -2.79932,4.1441c-0.89028,3.93732 2.74863,9.86708 7.29053,8.38952c1.4485,-0.47122 2.47433,-2.19624 3.31494,-3.2574c0.07291,-0.09204 0.14534,-0.18287 0.21731,-0.27266c-0.01092,-0.01072 -0.02189,-0.02137 -0.0329,-0.03196z" fill="#ffffff"/><path d="M238.81506,192.44298c-1.76777,1.76777 -3.53553,0 -3.53553,0l-1.58783,-1.61432c-0.67301,-0.39653 -1.34602,-0.79305 -2.01904,-1.18958c0,0 -1.5274,-0.91644 -1.2301,-2.49147c-0.23348,-0.19258 -0.4308,-0.41605 -0.56769,-0.69184c-0.39115,-0.78805 -0.3245,-5.72808 -0.3245,-7.1372c0,-5.7956 0.45427,-11.48271 0.45427,-17.26208c0,0 0,-2.5 2.5,-2.5c2.5,0 2.5,2.5 2.5,2.5c0,5.78376 -0.45427,11.46571 -0.45427,17.26208c0,0.90853 0.06293,1.81924 0,2.72559c-0.0456,0.65673 -0.62324,1.36148 -0.3245,1.94811c0.26463,0.51964 1.16391,0.27944 1.63436,0.62403c0.64427,0.47191 1.23976,2.20713 1.77238,1.61208c2.15628,-2.40905 1.00307,-9.44384 1.00307,-12.361c0,-1.96848 0,-3.93697 0,-5.90545c0,-0.90853 0,-1.81706 0,-2.72559v-2.27133c0,0 0,-2.5 2.5,-2.5c2.5,0 2.5,2.5 2.5,2.5c0,0.90853 0,4.08839 0,4.99692c0,5.79 1.34758,13.72461 -1.09884,19.12733c-0.89126,1.96828 -1.7002,3.21746 -2.93901,3.76122c-0.02621,0.49564 -0.23435,1.04407 -0.78278,1.59249z" fill="#ffffff"/><path d="M254.71435,193.35152c-1.76776,1.76776 -3.53553,0 -3.53553,0l-1.61564,-2.32274c-1.2069,-8.56176 1.33767,-16.77397 1.33767,-25.33815c0,0 0,-2.5 2.5,-2.5c2.5,0 2.5,2.5 2.5,2.5c0,8.29701 -2.58479,16.37521 -1.38792,24.63105l0.20142,-0.50568c0,0 1.76777,1.76777 0,3.53554z" fill="#ffffff"/><path d="M252.26364,158.42237c0,-1.38071 1.11929,-2.5 2.5,-2.5c1.38071,0 2.5,1.11929 2.5,2.5c0,1.38071 -1.11929,2.5 -2.5,2.5c-1.38071,0 -2.5,-1.11929 -2.5,-2.5z" fill="#ffffff"/><path d="M273.18628,195.45853c-2.48819,0.24273 -2.73092,-2.24547 -2.73092,-2.24547l-0.0441,-0.45212c-0.69198,-7.09354 -1.08386,-13.95661 -1.06182,-20.93537c-0.36501,-0.05328 -0.72862,-0.11909 -1.09053,-0.19985c-1.87036,-0.41738 -3.71162,-1.11534 -5.62694,-1.1789c0,0 -2.49751,-0.11159 -2.38591,-2.6091c0.1116,-2.49751 2.6091,-2.3859 2.6091,-2.3859c2.19964,0.11799 4.33626,0.78896 6.48101,1.29134c0.03414,0.00799 0.06831,0.01584 0.10253,0.02352c0.02269,-0.70316 0.04977,-1.40829 0.08134,-2.11574c0,0 0.1116,-2.49751 2.6091,-2.38591c2.49751,0.1116 2.38591,2.6091 2.38591,2.6091c-0.03311,0.74011 -0.06115,1.47736 -0.08425,2.21222c1.86329,-0.06277 3.73672,-0.21442 5.51954,-0.0983l1.91438,0.97121c0,0 1.93104,1.58778 0.34326,3.51882c-1.31594,1.60043 -2.86765,0.78382 -3.36042,0.45727c-1.4862,-0.05594 -2.99286,0.01879 -4.49939,0.06458c-0.01571,6.75789 0.36831,13.39554 1.03945,20.27557l0.04411,0.45212c0,0 0.24273,2.48819 -2.24546,2.73092z" fill="#ffffff"/></g></g></svg>