<svg version="1.1" xmlns="http://www.w3.org/2000/svg" xmlns:xlink="http://www.w3.org/1999/xlink" width="108.45663" height="79.21002" viewBox="0,0,108.45663,79.21002"><g transform="translate(-183.32219,-139.2915)"><g data-paper-data="{&quot;isPaintingLayer&quot;:true}" fill-rule="nonzero" stroke="none" stroke-width="0.5" stroke-linecap="butt" stroke-linejoin="miter" stroke-miterlimit="10" stroke-dasharray="" stroke-dashoffset="0" style="mix-blend-mode: normal"><path d="M227.1714,141.51417c7.53402,-2.46211 17.05858,-2.47376 25.02199,-1.94053c4.14019,0.27722 8.15925,1.501 12.28705,1.81852c0.21416,0.01648 0.42834,0.03131 0.64256,0.04464c0.58281,0.00655 1.17097,0.03243 1.75894,0.0779c6.01227,0.16706 12.0384,-0.59471 18.01159,0.39916c3.37192,1.1852 8.9262,3.98805 6.1179,8.48007l0.21521,0.46794c0,0.90853 0,1.81706 0,2.72559c-0.01491,7.23305 -2.45625,14.30243 -3.03505,21.55668c-0.58412,7.32106 -0.42057,15.17649 -0.42432,22.50707c-0.00191,3.73537 -0.262,9.77319 -2.65065,12.87412c-2.13582,2.77271 -6.3456,3.88645 -9.40388,4.95923c-5.37856,1.57558 -10.5619,0.64619 -16.07417,1.01169c-2.43136,0.16122 -5.28979,0.07522 -7.68908,0.44405c-2.07316,0.3187 -4.05755,1.22992 -6.14836,1.37301c-6.27702,0.42957 -12.75284,0.05792 -18.98664,-0.45427c-3.2979,-0.27096 -6.75243,0.70254 -9.9631,0.45268c-1.82,-0.14163 -3.58289,-0.92069 -5.40775,-0.89843c-3.31878,-0.02742 -6.19467,-0.83509 -9.35174,-1.92874c-0.64505,-0.22345 -1.21209,-0.80999 -1.89118,-0.79685c-0.7883,0.01525 -1.43407,0.75031 -2.21333,0.87625c-2.88818,0.46678 -8.00604,0.40273 -10.47801,-1.39262c-0.93901,-0.68199 -1.32309,-1.95823 -1.90239,-2.99159c-0.72942,-1.30116 -1.6964,-2.53146 -2.01873,-4.00303c-0.42022,-1.91853 0.39804,-3.92271 0.39524,-5.89138c-0.01292,-9.08526 0,-18.17065 0,-27.25593c0,-4.88636 0.36837,-9.94572 0.00599,-14.81354c-0.27666,-3.71625 -1.48906,-9.1397 0.25777,-12.67781c1.89628,-3.84083 6.22152,-4.95029 9.89959,-4.99017c9.70365,-0.10521 19.41578,-0.01226 29.12003,0.00483c1.07101,0.14064 2.15093,0.23889 3.23699,0.30819c0.3581,-0.24357 0.66756,-0.34673 0.66756,-0.34673z" fill="#16ff00"/><path d="M202.72931,175.46431c5.11445,0.15346 6.36272,-3.04719 6.37911,-7.50236c0.00027,-0.07261 0.58808,-3.3183 -0.42712,-3.95534c-1.69589,-1.06418 -4.70194,-0.84835 -6.71544,-0.81636c-0.33748,3.64187 -0.31966,7.39464 -0.12571,11.00689c0.02035,0.37901 0.06287,0.75738 0.11443,1.1354zM201.61458,158.1937c3.03089,0.00656 7.6866,-0.18199 10.19536,1.91269c2.85608,2.38468 2.28987,4.61496 2.29848,7.85555c0.00413,1.55441 0.27981,3.14751 -0.06688,4.66277c-1.27184,5.55879 -6.72747,7.73937 -11.72463,7.82255l-0.16733,-0.02739c-0.74435,5.89667 -3.17245,11.58673 -4.31873,17.45943c0.72348,1.0454 0.19947,2.35544 0.19947,2.35544l-0.59705,0.1201c-0.05782,0.46995 -0.105,0.9414 -0.14004,1.41453l-1.29613,-1.12563l-3.68913,0.74208c0.61393,-7.72636 4.41759,-15.04515 4.99551,-22.69406c0.01714,-0.22691 0.01921,-0.45346 0.01025,-0.67978c-0.01986,-0.13093 -0.02983,-0.27034 -0.02824,-0.41874c-0.09754,-1.04845 -0.37856,-2.0934 -0.43913,-3.14704c-0.2758,-4.79673 -0.19291,-9.81301 0.47629,-14.56032c0,0 0.35355,-2.47487 2.82842,-2.12132c0.51088,0.07298 0.90124,0.23636 1.19906,0.4497c0.1626,-0.02056 0.26445,-0.02056 0.26445,-0.02056z" fill="#ffffff"/><path d="M231.82477,194.76361c0,2.5 -2.5,2.5 -2.5,2.5l-0.9518,-0.03402c-2.27328,0.37218 -9.45798,1.65009 -11.07015,-0.54994c-0.30707,-0.41904 0.81351,-6.27706 0.89719,-7.54445c0.55515,-8.4082 3.36403,-16.32126 4.56149,-24.70666c0,0 0.35355,-2.47487 2.82843,-2.12132c2.47487,0.35355 2.12132,2.82843 2.12132,2.82843c-0.91034,6.37 -2.66391,12.17287 -4.13014,18.39145c-0.67495,2.86258 0.21459,6.22177 -0.71218,9.02054c1.5336,-0.22546 3.14535,0.01138 4.68204,-0.25l1.77379,-0.03402c0,0 2.5,0 2.5,2.5z" fill="#ffffff"/><path d="M254.89874,182.69738c-1.16102,1.45128 -2.53783,0.96053 -3.16792,0.61315c0.01622,0.05015 0.03267,0.10023 0.04934,0.15025c0.02966,3.29009 -0.80388,7.24153 1.03881,10.01659l0.35627,1.7405c0,0 0,2.5 -2.5,2.5c-2.09095,0 -2.43307,-1.74883 -2.48905,-2.32111c-1.80038,-3.64161 -1.38946,-7.00267 -1.34147,-11.13507c-0.35192,-1.05575 -0.60178,-2.15194 -0.78599,-3.27339c-1.11229,-0.25757 -2.20456,-0.56963 -3.28223,-0.92606c-0.53755,5.36341 -1.41897,10.65576 -1.41217,16.06417c0,0 0,2.5 -2.5,2.5c-2.5,0 -2.5,-2.5 -2.5,-2.5c0.00649,-5.6268 1.50787,-10.86786 1.78071,-16.45514c0.02203,-0.45116 0.02639,-0.92236 0.01843,-1.40882c-1.20517,-0.53403 -2.40142,-1.10742 -3.59703,-1.70471c0,0 -2.23607,-1.11803 -1.11803,-3.3541c1.11803,-2.23607 3.3541,-1.11803 3.3541,-1.11803c0.34912,0.17472 0.6973,0.34529 1.04486,0.51173c-0.11078,-2.22128 -0.09785,-4.40638 0.42473,-6.21124c0.97136,-3.35484 5.62584,-8.42838 9.76783,-5.90965c1.32151,0.80361 1.11385,2.8954 1.47502,4.39931c0.92921,3.86916 0.80786,7.98275 1.09613,11.96206c0.34942,0.06537 0.7016,0.12747 1.05681,0.18631l2.8404,2.15936c0,0 1.95217,1.56174 0.39043,3.51391zM245.02153,169.23109c-0.11408,-0.79842 -0.65572,-2.26232 -0.48491,-3.45894c-0.55391,0.60004 -1.27424,1.23606 -1.44593,1.9486c-0.40907,1.69771 0.09072,3.49182 0.09071,5.23812c0,0.62258 -0.01149,1.24316 -0.03262,1.86204c0.78974,0.28237 1.58475,0.54428 2.38878,0.78599c-0.1255,-2.15194 -0.22075,-4.30923 -0.51603,-6.3758z" fill="#ffffff"/><path d="M268.3916,201.80626c-2.5,0 -2.5,-2.5 -2.5,-2.5v-1.3628c0.06415,-7.11531 4.65675,-11.22162 6.95731,-17.64215c0.45548,-1.27118 0.55296,-3.03177 0.86619,-4.55829c-1.71272,0.68504 -3.25639,1.13577 -5.44362,0.55749c-4.58075,-1.2111 -7.39863,-5.96982 -8.25132,-10.1989c0,0 -0.411,-2.46598 2.05499,-2.87698c2.46598,-0.411 2.87698,2.05499 2.87698,2.05499c0.4295,4.05227 3.48681,6.59792 7.46973,5.83946l0.9777,-1.9554c0.40086,-0.84561 1.26228,-1.43041 2.26029,-1.43041c1.1246,0 2.07576,0.74256 2.38994,1.76412l0.8903,2.6709l-0.06216,0.02072c0.05595,0.12145 0.10879,0.24452 0.15817,0.36939c0.46639,1.1796 -0.20717,5.28302 -0.4957,6.45427c-0.80965,3.28665 -2.14579,6.96002 -3.95457,9.83006c-2.21766,3.51883 -3.74502,4.72736 -3.69423,9.10072v1.3628c0,0 0,2.5 -2.5,2.5z" fill="#ffffff"/></g></g></svg>