<svg version="1.1" xmlns="http://www.w3.org/2000/svg" xmlns:xlink="http://www.w3.org/1999/xlink" width="612.71377" height="395.5" viewBox="0,0,612.71377,395.5"><g transform="translate(34,19.5)"><g data-paper-data="{&quot;isPaintingLayer&quot;:true}" fill-rule="nonzero" stroke="none" stroke-linecap="butt" stroke-linejoin="miter" stroke-miterlimit="10" stroke-dasharray="" stroke-dashoffset="0" style="mix-blend-mode: normal"><path d="M-34,376v-392h548v392z" fill="#00bdff" stroke-width="0"/><path d="M520.5,53.5c-13,0 -28,0 -41,0c-4.64824,0 -9.84104,-0.74941 -14.39818,-0.12913c-2.00906,0.27346 -3.97241,1 -6,1c-6.06472,2.02157 -11.70129,0.74257 -17.82366,0.0542c-1.45745,-0.16387 -2.93724,0.16818 -4.39954,0.0556c-5.35898,-0.41259 -10.6324,-1.7211 -16,-2c-5.55184,-0.28847 -11.24689,0.94734 -16.67615,-0.24819c-1.45583,-0.32057 -2.5449,-1.67609 -4,-2c-1.49487,-0.33276 -3.09165,0.38655 -4.59355,0.08707c-1.7604,-0.35102 -3.2485,-1.60698 -5,-2c-3.42372,-0.76825 -7.77825,0.56997 -11.33076,0.10551c-1.36277,-0.17817 -2.63525,-0.83769 -4,-1c-5.04721,-0.60028 -10.67746,0.07492 -15.77817,0.07492c-3.67759,0 -7.78274,-0.62123 -11.39818,-0.12913c-1.04446,0.14216 -1.95487,0.86281 -3,1c-1.85188,0.24309 -3.73415,0.10999 -5.60182,0.12913c-3.46614,0.03552 -6.96352,-0.59663 -10.39818,-0.12913c-1.04446,0.14216 -1.95312,0.87689 -3,1c-3.43637,0.4041 -6.93608,-0.27953 -10.37999,0.0542c-2.28929,0.22184 -4.33906,1.65026 -6.62001,1.9458c-3.27049,0.42375 -6.60973,-0.20626 -9.89293,0.10397c-5.40274,0.5105 -10.741,1.65031 -16.15589,2.00986c-4.18002,0.27755 -8.39394,-0.39385 -12.56763,-0.03336c-1.69337,0.14626 -3.30584,0.86318 -5,1c-0.70325,0.05679 -9.63906,0.04867 -11.98538,0.04867c-12.41533,0 -24.55935,-1 -37,-1c-4.89444,0 -10.55859,-0.78786 -15.39818,-0.12913c-1.04446,0.14216 -1.9522,0.88497 -3,1c-2.39199,0.2626 -4.81539,-0.01155 -7.21806,0.12176c-7.45734,0.41376 -14.91501,1.03449 -22.38377,1.00737c-4.42179,-0.01606 -8.85562,-0.3759 -13.22183,-1.07492c-0.58579,-0.09378 -1.26765,0.37711 -1.77817,0.07492h-3c-0.80556,0 -1.58888,-0.09525 -2.3393,-0.27511c-2.21648,0.6926 -4.38813,1.61653 -6.661,2.07313c-2.76677,0.55582 -5.60827,0.64625 -8.39788,1.07285c-3.16398,0.48386 -6.20278,1.66659 -9.37999,2.0542c-4.14528,0.50571 -9.04438,0.07492 -13.22183,0.07492c-8.53547,0 -17.06783,0.03779 -25.60182,-0.12913c-4.68277,-1.56092 -10.00188,-1.24237 -14.92738,-1.98849c-3.77593,-0.57198 -7.48981,-1.59896 -11.2956,-1.91646c-7.27731,-0.6071 -14.71229,0.58761 -22,0c-2.02103,-0.16296 -3.97769,-0.85379 -6,-1c-2.79176,-0.20183 -5.60859,0.20259 -8.39703,-0.04085c-5.55124,-0.48465 -11.20708,-2.21744 -16.76354,-2.97374c-4.14853,-0.56467 -8.81213,0.04867 -13.01462,0.04867c0,0 -10,0 -10,-10c0,-10 10,-10 10,-10c1.61138,0 3.25833,-0.05662 4.91617,-0.11225c-0.79803,-1.09382 -1.37945,-2.35574 -1.68117,-3.72269c-2.20566,0.17888 -4.72704,0.37245 -6.235,-0.16506c-4.06397,-1.4486 -10.43703,-1.19355 -11.81674,-5.28142c-0.74833,-2.21718 -0.53282,-4.57525 0.1938,-6.90526c-1.37242,-1.47875 -2.37705,-3.64372 -2.37705,-6.81332c0,-10 10,-10 10,-10l3.01954,0.67197c-1.1859,-1.66289 -2.01954,-4.00081 -2.01954,-7.28776c0,-11.38421 10,-11.38421 10,-11.38421c4.58355,0.14642 9.5415,0.91239 13.64107,3.57715c2.11645,1.37571 4.01603,3.15414 5.91095,4.89892c0.3274,0.30146 0.3368,0.96111 0.70529,1.1931c2.72265,1.71407 6.26936,2.71058 9,4.55368c0.81098,0.54739 1.19305,1.72179 2,2.27684c0.70482,0.48481 1.66882,0.27331 2.38376,0.73851c1.44699,0.94153 2.59096,2.40188 4,3.41526c1.4952,1.07535 3.45469,0.87574 5.15481,1.43053c5.5823,1.82165 10.43871,1.82285 16.20412,1.82285c9.69421,0.59422 15.44791,-8.60019 22.74269,-14.23767c0.87212,-0.67399 2.09613,-0.52102 3,-1.13842c0.80845,-0.55222 1.15815,-1.7936 2,-2.27684c2.1022,-1.20673 4.32581,-2.30485 6.65549,-2.69164c2.4757,-0.41104 5.06359,-0.30753 7.49966,0.34147c1.55952,0.41548 2.67124,2.05484 4.14769,2.76156c1.26694,0.60643 2.74955,0.48916 4,1.13842c2.80674,1.45731 4.91097,4.28913 7.59553,6.01923c0.83777,0.53991 1.90385,0.47818 2.75245,0.99571c1.73898,1.06055 3.37831,2.33673 4.94638,3.69956c0.4059,0.35277 0.47438,1.10765 0.91742,1.39675c0.48403,0.31584 0.99142,0.58443 1.505,0.83991c1.16832,0.0684 2.3234,0.17152 3.45952,0.32006c1.36277,0.17817 2.64291,0.78274 4,1c3.657,0.58548 8.03691,-0.07492 11.77817,-0.07492c6.0117,0 12.0234,0 18.0351,0c3.03268,-1.93464 7.44944,-3.15672 9.89383,-6.14301c1.67317,-2.04411 3.40653,-4.98221 4.75056,-7.37233l2.24944,-2.87345c0,0 0.95472,-1.08687 2.51334,-2.06251c2.96034,-3.54869 7.55773,-3.54869 7.55773,-3.54869c4.58355,0.14642 9.5415,0.91239 13.64106,3.57715c2.11645,1.37571 4.01603,3.15414 5.91095,4.89892c0.3274,0.30146 0.3368,0.96111 0.70529,1.1931c2.72265,1.71407 6.26935,2.71058 9,4.55368c0.81098,0.54739 1.19305,1.72179 2,2.27684c0.70482,0.48481 1.66881,0.27331 2.38376,0.73851c1.15237,0.74982 2.11255,1.82869 3.16748,2.74881c5.32303,-0.00461 10.55503,0.1049 15.79327,1.14212c1.43875,0.28489 2.93149,-0.12912 4.39818,-0.12912c3.92954,0 7.86104,-0.03204 11.79127,-0.02056c4.58092,-3.0545 8.47616,-7.85175 12.95142,-11.31026c0.87212,-0.67399 2.09612,-0.52102 3,-1.13842c0.80845,-0.55222 1.15816,-1.7936 2,-2.27684c2.10221,-1.20673 4.32581,-2.30485 6.65549,-2.69164c2.47569,-0.41104 5.06359,-0.30753 7.49966,0.34147c1.55952,0.41548 2.67124,2.05484 4.14769,2.76156c1.26693,0.60643 2.74955,0.48916 4,1.13842c2.80674,1.45731 4.91097,4.28913 7.59553,6.01923c0.83776,0.53991 1.90385,0.47818 2.75245,0.99571c1.73898,1.06055 3.37831,2.33673 4.94638,3.69956c0.40589,0.35277 0.47438,1.10765 0.91742,1.39675c1.12239,0.73238 2.37034,1.2107 3.53006,1.86065c3.67208,-0.14477 7.33693,-0.36604 10.99079,-0.70067c4.32248,-0.39587 8.67868,-2.41547 13,-3c5.87436,-0.79461 12.16456,0.66054 18.09019,0.32286c1.16109,-0.70695 2.22583,-1.52101 3.06057,-2.5408c1.67318,-2.04411 3.40654,-4.98221 4.75056,-7.37233l2.24944,-2.87345c0,0 4.32273,-4.92109 9.58836,-3.22026c1.4262,-0.39094 2.48271,-0.39094 2.48271,-0.39094c4.58355,0.14642 9.5415,0.91239 13.64107,3.57715c2.11645,1.37571 4.01602,3.15414 5.91095,4.89892c0.3274,0.30146 0.33681,0.96111 0.7053,1.1931c1.54592,0.97326 3.35751,1.71516 5.13455,2.51206c1.66548,-0.42261 3.33416,-0.83261 5.00632,-1.05211c2.64398,-0.34706 5.36737,0.42471 8,0c1.04064,-0.16789 1.95734,-0.84513 3,-1c6.26472,-0.93052 13.26643,-0.12913 19.60182,-0.12913c6.75117,0 13.50502,-0.06741 20.25511,0.05292c0.16179,-0.1296 0.3243,-0.25756 0.48758,-0.38375c0.87212,-0.67399 2.09612,-0.52103 3,-1.13842c0.80845,-0.55222 1.15816,-1.7936 2,-2.27684c2.10221,-1.20673 4.32581,-2.30485 6.65549,-2.69164c2.47569,-0.41104 5.06359,-0.30753 7.49966,0.34147c1.55952,0.41548 2.67124,2.05484 4.14769,2.76156c1.26693,0.60643 2.74955,0.48916 4,1.13842c2.80674,1.45731 4.91097,4.28913 7.59553,6.01923c0.83776,0.53991 1.90385,0.47818 2.75245,0.99571c0.32911,0.20071 0.65464,0.40915 0.9768,0.62443c0.85708,0.33965 1.72287,0.59947 2.62969,0.55693c1.33187,-0.06248 4.38313,-1.2771 4,0h3c5.12811,0 9.35467,3.86004 9.93264,8.83308c0.15042,0.07351 0.30397,0.15057 0.46087,0.23136c0.62667,0.32267 0.91768,1.199 1.50432,1.60771c0.12541,0.08737 -0.04406,-0.47106 0.10216,-0.48847c1.3261,-0.15791 2.66666,0 4,0c1.33334,0 2.66666,0 4,0c2.33334,0 4.67932,-0.27634 7,0c0.14622,0.01741 -0.02469,0.57309 0.10216,0.48847c0.69913,-0.46633 1.10757,-1.42865 1.85231,-1.79213c0.97053,-0.47368 2.17149,-0.10224 3.11854,-0.63394c0.73497,-0.41263 0.9648,-1.57846 1.66968,-2.05429c3.03468,-2.04854 7.66206,-3.25105 10.18624,-6.33481c1.67318,-2.04411 3.40653,-4.98221 4.75056,-7.37233l2.24944,-2.87345c0,0 7.07107,-8.04985 14.14214,0c7.07107,8.04985 0,16.0997 0,16.0997l0.24944,-0.5966c-1.9656,3.28062 -4.74886,8.07721 -7.24944,10.8424c-2.75275,3.04403 -8.21299,7.0094 -11.67755,9.00728c-0.654,0.37714 -1.50998,0.16184 -2.13621,0.5958c-0.91161,0.63172 -1.37751,1.95212 -2.33032,2.49939c-1.51487,0.87011 -3.32184,0.88211 -4.88146,1.6429c-1.4722,0.71814 -2.60704,2.26311 -4.14769,2.76156c-1.78667,0.57804 -7.17596,0.4952 -9.64556,0.48882c1.03949,1.43328 1.74772,3.3863 1.74772,6.04755c0,5.21714 -2.72185,7.71242 -5.3255,8.90588c-1.72025,7.09412 -9.6745,7.09412 -9.6745,7.09412z" fill="#ffffff" stroke-width="0.5"/></g></g></svg>